<mxfile host="app.diagrams.net" modified="2022-02-09T06:02:34.968Z" agent="5.0 (Windows NT 10.0; Win64; x64) AppleWebKit/537.36 (KHTML, like Gecko) Chrome/97.0.4692.99 Safari/537.36" etag="x1wcMmjKJlPx1X1-WVuC" version="16.5.2" type="github">
  <diagram id="yqBjzgYDcLQsE_bjkhoh" name="Page-1">
    <mxGraphModel dx="782" dy="468" grid="1" gridSize="10" guides="1" tooltips="1" connect="1" arrows="1" fold="1" page="1" pageScale="1" pageWidth="850" pageHeight="1100" math="0" shadow="0">
      <root>
        <mxCell id="0" />
        <mxCell id="1" parent="0" />
        <mxCell id="xPYrDUrBfEV6JEniaKv3-1" value="&lt;b&gt;&lt;font style=&quot;font-size: 18px&quot;&gt;VID service&lt;/font&gt;&lt;/b&gt;" style="rounded=1;whiteSpace=wrap;html=1;" vertex="1" parent="1">
          <mxGeometry x="350" y="190" width="135" height="90" as="geometry" />
        </mxCell>
        <mxCell id="xPYrDUrBfEV6JEniaKv3-2" value="&lt;span style=&quot;color: rgba(0 , 0 , 0 , 0) ; font-family: monospace ; font-size: 0px&quot;&gt;%3CmxGraphModel%3E%3Croot%3E%3CmxCell%20id%3D%220%22%2F%3E%3CmxCell%20id%3D%221%22%20parent%3D%220%22%2F%3E%3CmxCell%20id%3D%222%22%20value%3D%22Partner%20Management%20Service%22%20style%3D%22rounded%3D0%3BwhiteSpace%3Dwrap%3Bhtml%3D1%3B%22%20vertex%3D%221%22%20parent%3D%221%22%3E%3CmxGeometry%20x%3D%22590%22%20y%3D%22315%22%20width%3D%22120%22%20height%3D%2260%22%20as%3D%22geometry%22%2F%3E%3C%2FmxCell%3E%3C%2Froot%3E%3C%2FmxGraphModel%3E&lt;/span&gt;" style="rounded=0;whiteSpace=wrap;html=1;" vertex="1" parent="1">
          <mxGeometry x="433.75" y="360" width="120" height="60" as="geometry" />
        </mxCell>
        <mxCell id="xPYrDUrBfEV6JEniaKv3-3" value="&lt;font style=&quot;font-size: 13px&quot;&gt;WebSub&lt;/font&gt;" style="rounded=0;whiteSpace=wrap;html=1;" vertex="1" parent="1">
          <mxGeometry x="100" y="197.5" width="120" height="60" as="geometry" />
        </mxCell>
        <mxCell id="xPYrDUrBfEV6JEniaKv3-4" value="&lt;font style=&quot;font-size: 14px&quot;&gt;Auth Adapter&lt;/font&gt;" style="rounded=0;whiteSpace=wrap;html=1;" vertex="1" parent="1">
          <mxGeometry x="110" y="300" width="120" height="60" as="geometry" />
        </mxCell>
        <mxCell id="xPYrDUrBfEV6JEniaKv3-5" value="" style="rounded=0;whiteSpace=wrap;html=1;" vertex="1" parent="1">
          <mxGeometry x="277.5" y="360" width="120" height="60" as="geometry" />
        </mxCell>
        <mxCell id="xPYrDUrBfEV6JEniaKv3-7" value="" style="rounded=0;whiteSpace=wrap;html=1;" vertex="1" parent="1">
          <mxGeometry x="520" y="81.25" width="100" height="58.75" as="geometry" />
        </mxCell>
        <mxCell id="xPYrDUrBfEV6JEniaKv3-9" value="&lt;font style=&quot;font-size: 14px&quot;&gt;Key Manager&lt;/font&gt;" style="text;html=1;strokeColor=none;fillColor=none;align=center;verticalAlign=middle;whiteSpace=wrap;rounded=0;" vertex="1" parent="1">
          <mxGeometry x="537.5" y="96.25" width="60" height="30" as="geometry" />
        </mxCell>
        <mxCell id="xPYrDUrBfEV6JEniaKv3-12" value="" style="shape=cylinder3;whiteSpace=wrap;html=1;boundedLbl=1;backgroundOutline=1;size=15;" vertex="1" parent="1">
          <mxGeometry x="570" y="270" width="60" height="70" as="geometry" />
        </mxCell>
        <mxCell id="xPYrDUrBfEV6JEniaKv3-13" value="DB" style="text;html=1;strokeColor=none;fillColor=none;align=center;verticalAlign=middle;whiteSpace=wrap;rounded=0;" vertex="1" parent="1">
          <mxGeometry x="570" y="290" width="60" height="50" as="geometry" />
        </mxCell>
        <mxCell id="xPYrDUrBfEV6JEniaKv3-14" value="&lt;font style=&quot;font-size: 13px&quot;&gt;Partner management service&lt;/font&gt;" style="text;html=1;strokeColor=none;fillColor=none;align=center;verticalAlign=middle;whiteSpace=wrap;rounded=0;" vertex="1" parent="1">
          <mxGeometry x="450" y="380" width="75" height="20" as="geometry" />
        </mxCell>
        <mxCell id="xPYrDUrBfEV6JEniaKv3-15" value="&lt;font style=&quot;font-size: 14px&quot;&gt;Audit Manager&lt;/font&gt;" style="text;html=1;strokeColor=none;fillColor=none;align=center;verticalAlign=middle;whiteSpace=wrap;rounded=0;" vertex="1" parent="1">
          <mxGeometry x="300" y="375" width="60" height="30" as="geometry" />
        </mxCell>
        <mxCell id="xPYrDUrBfEV6JEniaKv3-17" value="&lt;font style=&quot;font-size: 14px&quot;&gt;Identity Service&lt;/font&gt;" style="rounded=0;whiteSpace=wrap;html=1;" vertex="1" parent="1">
          <mxGeometry x="310" y="57.5" width="120" height="72.5" as="geometry" />
        </mxCell>
        <mxCell id="xPYrDUrBfEV6JEniaKv3-23" value="1" style="ellipse;whiteSpace=wrap;html=1;aspect=fixed;" vertex="1" parent="1">
          <mxGeometry x="500" y="150" width="17.5" height="17.5" as="geometry" />
        </mxCell>
        <mxCell id="xPYrDUrBfEV6JEniaKv3-25" value="2" style="ellipse;whiteSpace=wrap;html=1;aspect=fixed;" vertex="1" parent="1">
          <mxGeometry x="537.5" y="211.25" width="17.5" height="17.5" as="geometry" />
        </mxCell>
        <mxCell id="xPYrDUrBfEV6JEniaKv3-26" value="3" style="ellipse;whiteSpace=wrap;html=1;aspect=fixed;" vertex="1" parent="1">
          <mxGeometry x="525" y="270" width="20" height="20" as="geometry" />
        </mxCell>
        <mxCell id="xPYrDUrBfEV6JEniaKv3-29" value="6" style="ellipse;whiteSpace=wrap;html=1;aspect=fixed;" vertex="1" parent="1">
          <mxGeometry x="250" y="307.5" width="20" height="20" as="geometry" />
        </mxCell>
        <mxCell id="xPYrDUrBfEV6JEniaKv3-31" value="8" style="ellipse;whiteSpace=wrap;html=1;aspect=fixed;" vertex="1" parent="1">
          <mxGeometry x="270" y="175" width="22.5" height="22.5" as="geometry" />
        </mxCell>
        <mxCell id="xPYrDUrBfEV6JEniaKv3-32" value="9" style="ellipse;whiteSpace=wrap;html=1;aspect=fixed;" vertex="1" parent="1">
          <mxGeometry x="390" y="141.25" width="20" height="20" as="geometry" />
        </mxCell>
        <mxCell id="xPYrDUrBfEV6JEniaKv3-34" value="&lt;font style=&quot;font-size: 14px&quot;&gt;Credential request generator service&lt;/font&gt;" style="rounded=0;whiteSpace=wrap;html=1;fontSize=18;" vertex="1" parent="1">
          <mxGeometry x="570" y="190" width="120" height="60" as="geometry" />
        </mxCell>
        <mxCell id="xPYrDUrBfEV6JEniaKv3-36" value="" style="endArrow=classic;startArrow=classic;html=1;rounded=0;fontSize=14;entryX=0;entryY=0.5;entryDx=0;entryDy=0;" edge="1" parent="1" target="xPYrDUrBfEV6JEniaKv3-1">
          <mxGeometry width="50" height="50" relative="1" as="geometry">
            <mxPoint x="220" y="235" as="sourcePoint" />
            <mxPoint x="340" y="235" as="targetPoint" />
            <Array as="points" />
          </mxGeometry>
        </mxCell>
        <mxCell id="xPYrDUrBfEV6JEniaKv3-38" value="" style="endArrow=classic;html=1;rounded=0;fontSize=14;entryX=0;entryY=0.5;entryDx=0;entryDy=0;exitX=0.953;exitY=0.985;exitDx=0;exitDy=0;exitPerimeter=0;" edge="1" parent="1" source="xPYrDUrBfEV6JEniaKv3-1" target="xPYrDUrBfEV6JEniaKv3-13">
          <mxGeometry width="50" height="50" relative="1" as="geometry">
            <mxPoint x="480" y="280" as="sourcePoint" />
            <mxPoint x="360" y="180" as="targetPoint" />
          </mxGeometry>
        </mxCell>
        <mxCell id="xPYrDUrBfEV6JEniaKv3-39" value="" style="endArrow=classic;html=1;rounded=0;fontSize=14;entryX=0;entryY=0.75;entryDx=0;entryDy=0;exitX=1;exitY=0.5;exitDx=0;exitDy=0;" edge="1" parent="1" source="xPYrDUrBfEV6JEniaKv3-1" target="xPYrDUrBfEV6JEniaKv3-34">
          <mxGeometry width="50" height="50" relative="1" as="geometry">
            <mxPoint x="490" y="235" as="sourcePoint" />
            <mxPoint x="360" y="180" as="targetPoint" />
          </mxGeometry>
        </mxCell>
        <mxCell id="xPYrDUrBfEV6JEniaKv3-41" value="" style="endArrow=classic;html=1;rounded=0;fontSize=14;exitX=0.667;exitY=-0.033;exitDx=0;exitDy=0;exitPerimeter=0;entryX=0.064;entryY=1.007;entryDx=0;entryDy=0;entryPerimeter=0;" edge="1" parent="1" source="xPYrDUrBfEV6JEniaKv3-5" target="xPYrDUrBfEV6JEniaKv3-1">
          <mxGeometry width="50" height="50" relative="1" as="geometry">
            <mxPoint x="310" y="230" as="sourcePoint" />
            <mxPoint x="360" y="290" as="targetPoint" />
            <Array as="points">
              <mxPoint x="359" y="310" />
            </Array>
          </mxGeometry>
        </mxCell>
        <mxCell id="xPYrDUrBfEV6JEniaKv3-42" value="" style="endArrow=classic;html=1;rounded=0;fontSize=14;exitX=0.25;exitY=0;exitDx=0;exitDy=0;" edge="1" parent="1" source="xPYrDUrBfEV6JEniaKv3-2">
          <mxGeometry width="50" height="50" relative="1" as="geometry">
            <mxPoint x="310" y="230" as="sourcePoint" />
            <mxPoint x="465" y="280" as="targetPoint" />
          </mxGeometry>
        </mxCell>
        <mxCell id="xPYrDUrBfEV6JEniaKv3-44" value="" style="endArrow=classic;html=1;rounded=0;fontSize=14;entryX=-0.005;entryY=0.126;entryDx=0;entryDy=0;entryPerimeter=0;exitX=0.693;exitY=0.99;exitDx=0;exitDy=0;exitPerimeter=0;" edge="1" parent="1" source="xPYrDUrBfEV6JEniaKv3-51" target="xPYrDUrBfEV6JEniaKv3-1">
          <mxGeometry width="50" height="50" relative="1" as="geometry">
            <mxPoint x="240" y="150" as="sourcePoint" />
            <mxPoint x="360" y="180" as="targetPoint" />
            <Array as="points">
              <mxPoint x="240" y="200" />
            </Array>
          </mxGeometry>
        </mxCell>
        <mxCell id="xPYrDUrBfEV6JEniaKv3-45" value="" style="endArrow=classic;html=1;rounded=0;fontSize=14;" edge="1" parent="1">
          <mxGeometry width="50" height="50" relative="1" as="geometry">
            <mxPoint x="380" y="130" as="sourcePoint" />
            <mxPoint x="380" y="190" as="targetPoint" />
          </mxGeometry>
        </mxCell>
        <mxCell id="xPYrDUrBfEV6JEniaKv3-46" value="" style="endArrow=classic;html=1;rounded=0;fontSize=14;exitX=0.5;exitY=1;exitDx=0;exitDy=0;" edge="1" parent="1" source="xPYrDUrBfEV6JEniaKv3-7">
          <mxGeometry width="50" height="50" relative="1" as="geometry">
            <mxPoint x="310" y="230" as="sourcePoint" />
            <mxPoint x="480" y="190" as="targetPoint" />
          </mxGeometry>
        </mxCell>
        <mxCell id="xPYrDUrBfEV6JEniaKv3-50" value="" style="endArrow=classic;html=1;rounded=0;fontSize=13;exitX=1;exitY=0.25;exitDx=0;exitDy=0;" edge="1" parent="1" source="xPYrDUrBfEV6JEniaKv3-4">
          <mxGeometry width="50" height="50" relative="1" as="geometry">
            <mxPoint x="290" y="300" as="sourcePoint" />
            <mxPoint x="350" y="269" as="targetPoint" />
            <Array as="points">
              <mxPoint x="310" y="285" />
            </Array>
          </mxGeometry>
        </mxCell>
        <mxCell id="xPYrDUrBfEV6JEniaKv3-51" value="Kernel ID generator" style="rounded=0;whiteSpace=wrap;html=1;fontSize=14;" vertex="1" parent="1">
          <mxGeometry x="157.5" y="81.25" width="120" height="60" as="geometry" />
        </mxCell>
        <mxCell id="xPYrDUrBfEV6JEniaKv3-67" value="4" style="ellipse;whiteSpace=wrap;html=1;aspect=fixed;" vertex="1" parent="1">
          <mxGeometry x="470" y="307.5" width="20" height="20" as="geometry" />
        </mxCell>
        <mxCell id="xPYrDUrBfEV6JEniaKv3-71" value="5" style="ellipse;whiteSpace=wrap;html=1;aspect=fixed;" vertex="1" parent="1">
          <mxGeometry x="370" y="307.5" width="20" height="20" as="geometry" />
        </mxCell>
        <mxCell id="xPYrDUrBfEV6JEniaKv3-73" value="7" style="ellipse;whiteSpace=wrap;html=1;aspect=fixed;" vertex="1" parent="1">
          <mxGeometry x="272.5" y="240" width="17.5" height="17.5" as="geometry" />
        </mxCell>
      </root>
    </mxGraphModel>
  </diagram>
</mxfile>
